<?xml version="1.0" encoding="utf-8"?>
<!-- Generator: Adobe Illustrator 22.1.0, SVG Export Plug-In . SVG Version: 6.00 Build 0)  -->
<svg version="1.1" id="Layer_1" xmlns="http://www.w3.org/2000/svg" xmlns:xlink="http://www.w3.org/1999/xlink" x="0px" y="0px"
	 viewBox="0 0 960 960" style="enable-background:new 0 0 960 960;" xml:space="preserve">
<style type="text/css">
	.st0{clip-path:url(#SVGID_2_);}
	.st1{fill:#EDD43E;}
	.st2{fill:#14C5CC;}
	.st3{fill:#EDEDED;}
	.st4{clip-path:url(#SVGID_4_);}
	.st5{fill:#777777;stroke:#777777;stroke-width:5;stroke-miterlimit:10;}
</style>
<title>Asset 12</title>
<g>
	<g>
		<g id="Layer_2_1_">
			<defs>
				<rect id="SVGID_1_" x="0" y="-0.1" width="960" height="960"/>
			</defs>
			<clipPath id="SVGID_2_">
				<use xlink:href="#SVGID_1_"  style="overflow:visible;"/>
			</clipPath>
			<g id="Layer_1-2" class="st0">
				<rect x="-13.4" y="-13.4" class="st1" width="986.8" height="986.8"/>
				<g>
					<path class="st2" d="M275.8,78.6h-66.1c-17.3,0-30,12.8-30,30.6v178.7c0,17.7,12.6,30.6,30,30.6h66.1
						c57.1,0,97.9-36.8,107.1-93.8c1.4-8.5,2-17.1,2-25.7C385,127,341.1,78.6,275.8,78.6z M275.8,263h-38V134.2h38
						c37.7,0,51.1,33.5,51.1,64.9c0,6.5-0.7,19.4-5.4,31.9C315.5,247.3,302.7,263,275.8,263L275.8,263z"/>
					<path class="st2" d="M581.1,121.8l-0.2,0.3l-63.2,89.4v79.3c-0.1,16.3-13.3,29.4-29.6,29.3c-15.7,0-28.4-13.1-28.4-29.3v-79.3
						l-63.4-89.7c-4.4-6.8-6-15-4.2-22.9c1.5-7.2,5.9-13.5,12.1-17.4c13.5-8.3,31.2-4.4,40,8.7l44.5,64L533.3,90
						c8.8-13,26.3-16.8,39.8-8.7c6.3,3.9,10.7,10.2,12.2,17.5C587.1,106.7,585.6,115,581.1,121.8z"/>
					<path class="st2" d="M717.5,78.6h-68.6c-17.3,0-29.9,12.8-29.9,30.6v181.5c0,16.2,12.7,29.3,28.4,29.3
						c16.3,0.1,29.5-13,29.6-29.3v-51.2h40.5c57.6,0,78-43.2,78-80.2C795.5,119.2,771.4,78.6,717.5,78.6z M715.6,184.4H677v-50.2
						h39.9c20,0,20.6,22.7,20.6,25.3C737.5,165.3,735.9,184.4,715.6,184.4z"/>
				</g>
				<path class="st3" d="M960.1,636.6v323.5H-0.1V671.3c90.3-130.2,277.5-219.7,493.8-219.7C690,451.6,862.4,525.4,960.1,636.6z"/>
				<g>
					<defs>
						<rect id="SVGID_3_" x="-0.1" y="-0.2" width="960.3" height="960.3"/>
					</defs>
					<clipPath id="SVGID_4_">
						<use xlink:href="#SVGID_3_"  style="overflow:visible;"/>
					</clipPath>
					<g class="st4">
						<g>
							<path class="st5" d="M37.7,962.7C60,758.4,130.6,578.4,242,520.5l-33-35.6c-345.4,61-305,520.6-305,520.6"/>
							<path class="st5" d="M1137,1081.7c0,0,33.4-244-78-399.5S782.8,447.5,680.2,422.9c-89.1-21.3-330.5-51.9-453.1,15.3
								c-113.3,62,282.2,247,282.2,247L1007,880.4"/>
						</g>
					</g>
					<g class="st4">
						<path class="st3" d="M268.3,67.6h-66.1c-17.3,0-30,12.8-30,30.6v178.7c0,17.7,12.6,30.6,30,30.6h66.1
							c57.1,0,97.9-36.8,107.1-93.8c1.4-8.5,2-17.1,2-25.7C377.5,116,333.6,67.6,268.3,67.6z M268.3,252h-38V123.2h38
							c37.7,0,51.1,33.5,51.1,64.9c0,6.5-0.7,19.4-5.4,31.9C308,236.3,295.2,252,268.3,252L268.3,252z"/>
						<path class="st3" d="M573.6,110.8l-0.2,0.3l-63.2,89.4v79.3c-0.1,16.3-13.4,29.4-29.6,29.3c-15.7,0-28.4-13.1-28.4-29.3v-79.3
							l-63.4-89.7c-4.4-6.8-5.9-15-4.2-22.9c1.5-7.2,5.9-13.5,12.1-17.4c13.5-8.3,31.2-4.4,40,8.7l44.5,64L525.9,79
							c8.8-13,26.4-16.8,39.8-8.6c6.3,3.9,10.7,10.2,12.2,17.5C579.6,95.7,578.1,104,573.6,110.8z"/>
						<path class="st3" d="M710,67.6h-68.6c-17.3,0-29.9,12.8-29.9,30.6v181.5c0,16.2,12.7,29.3,28.4,29.3
							c16.3,0.1,29.5-13,29.6-29.3v-51.2H710c57.6,0,78-43.2,78-80.2C788,108.2,763.9,67.6,710,67.6z M708.1,173.4h-38.6v-50.2h39.9
							c20,0,20.6,22.7,20.6,25.3C730,154.3,728.4,173.4,708.1,173.4z"/>
					</g>
					<path class="st4" d="M405.8,891.3H203.6c-5,0-9-4-9-9s4-9,9-9l179,0.3c21,0,39-17,43-31l0-0.2c0.6-4.9,5.1-8.4,10.1-7.8
						c4.9,0.6,8.4,5.1,7.8,10.1c0,0.1,0,0.1,0,0.2l-2.1,15.8c-1.4,8.1-5.3,15.5-11.3,21.2C423.5,888,414.8,891.4,405.8,891.3z"/>
					<path class="st4" d="M553.9,891.6h202.2c5,0,9-4,9-9s-4-9-9-9l-179,0.2c-21,0-39-17-43-31l-0.1-0.2c-0.6-4.9-5.1-8.4-10.1-7.8
						c-4.9,0.6-8.4,5.1-7.8,10.1c0,0.1,0,0.1,0,0.2l2.2,15.8c1.4,8.1,5.4,15.5,11.3,21.2C536.2,888.2,544.9,891.6,553.9,891.6z"/>
				</g>
			</g>
		</g>
	</g>
</g>
</svg>
